{
.appVersion = "3226";
.formatVersion = 3;
DisplayStrings = (
"HAMBURGEFONTSIV
hamburgefontsiv     .,!aeaeaeaee
nnann ooaoo nnaoo ooann ooaaoonnaanne
nnnnnnnnnnnnnnnnnnnnnnnnnnnnnnnnnn
ooooooooooooooooooooooooooooooooo
nnonnoonoononooonnoononononononononono
uuuuuu

guggenheim.",
ABDEFGHIMUNOPOQRSTUVWX,
"/A.ss01/B.ss01/A.ss02/B.ss02",
"A/A.ss01/A.ss02 
B/B.ss01/B.ss02",
ig,
T,
A,
" "
);
axes = (
{
name = Weight;
tag = wght;
}
);
customParameters = (
{
name = vendorID;
value = "    ";
},
{
name = panose;
value = (
0,
0,
0,
0,
0,
0,
0,
0,
0,
0
);
},
{
name = unicodeRanges;
value = (
0,
1,
5,
31,
33,
35
);
},
{
name = codePageRanges;
value = (
"1252"
);
},
{
name = fsType;
value = (
);
}
);
date = "2023-10-25 20:34:19 +0000";
familyName = Madimi;
featurePrefixes = (
{
automatic = 1;
code = "languagesystem DFLT dflt;

languagesystem latn dflt;
languagesystem latn AZE;
languagesystem latn CRT;
languagesystem latn KAZ;
languagesystem latn TAT;
languagesystem latn TRK;
languagesystem latn ROM;
languagesystem latn MOL;
";
name = Languagesystems;
}
);
features = (
{
automatic = 1;
code = "feature locl;
feature ss01;
feature ss02;
";
tag = aalt;
},
{
automatic = 1;
code = "lookup ccmp_Other_1 {
	@CombiningTopAccents = [acutecomb brevecomb caroncomb circumflexcomb commaturnedabovecomb dieresiscomb dotaccentcomb gravecomb hungarumlautcomb macroncomb ringcomb tildecomb];
	@CombiningNonTopAccents = [cedillacomb ogonekcomb];
	sub [i]' @CombiningTopAccents by [idotless];
	sub [i]' @CombiningNonTopAccents @CombiningTopAccents by [idotless];
} ccmp_Other_1;
";
tag = ccmp;
},
{
automatic = 1;
code = "lookup locl_latn_0 {
	script latn;
	language AZE;
	sub i by idotaccent;
	language CRT;
	sub i by idotaccent;
	language KAZ;
	sub i by idotaccent;
	language TAT;
	sub i by idotaccent;
	language TRK;
	sub i by idotaccent;
} locl_latn_0;

lookup locl_latn_1 {
	script latn;
	language ROM;
	sub Scedilla by Scommaaccent;
	sub scedilla by scommaaccent;
	language MOL;

glyphs = (
{
color = 5;
glyphname = A;
lastChange = "2023-11-08 20:49:50 +0000";
layers = (
{
anchors = (
{
name = bottom;
pos = (332,0);
},
{
name = ogonek;
pos = (561,10);
},
{
name = top;
pos = (332,700);
}
);
hints = (
{
horizontal = 1;
place = (652,72);
type = Stem;
},
{
horizontal = 1;
place = (313,73);
type = Stem;
},
{
horizontal = 1;
place = (-24,21);
target = up;
type = BottomGhost;
},
{
place = (410,91);
type = Stem;
},
{
place = (73,90);
type = Stem;
}
);
layerId = "2F065738-4B59-43EB-A5F2-FD5F277958EA";
shapes = (
{
closed = 1;
nodes = (
(185,-11,o),
(209,9,o),
(209,51,cs),
(209,233,ls),
(209,288,o),
(239,306,o),
(330,306,cs),
(374,306,o),
(433,325,o),
(457,347,c),
(457,51,ls),
(457,11,o),
(483,-11,o),
(529,-11,cs),
(576,-11,o),
(601,10,o),
(601,51,cs),
(601,502,ls),
(601,650,o),
(522,711,o),
(330,711,cs),
(140,711,o),
(65,652,o),
(65,502,cs),
(65,55,ls),
(65,9,o),
(87,-11,o),
(137,-11,cs)
);
},
{
closed = 1;
nodes = (
(207,414,o),
(209,450,o),
(209,502,cs),
(209,568,o),
(246,597,o),
(330,597,cs),
(447,597,o),
(474,579,o),
(474,502,cs),
(474,439,o),
(451,427,o),
(330,427,cs),
(273,427,o),
(224,414,o),
(203,393,c)
);
}
);
width = 666;
}
);
metricRight = "=|";
note = A;
unicode = 65;
},
{
glyphname = B;
lastChange = "2023-11-08 21:00:03 +0000";
layers = (
{
anchors = (
{
name = bottom;
pos = (338,0);
},
{
name = center;
pos = (338,350);
},
{
name = top;
pos = (338,700);
}
);
background = {
shapes = (
{
ref = A;
}
);
};
hints = (
{
horizontal = 1;
place = (653,72);
type = Stem;
},
{
horizontal = 1;
place = (315,72);
type = Stem;
},
{
horizontal = 1;
place = (-24,72);
type = Stem;
},
{
place = (389,90);
type = Stem;
},
{
place = (51,90);
type = Stem;
}
);
layerId = "2F065738-4B59-43EB-A5F2-FD5F277958EA";
shapes = (
{
closed = 1;
nodes = (
(337,-4,ls),
(498,-4,o),
(599,80,o),
(599,213,cs),
(599,290,o),
(581,335,o),
(537,370,c),
(561,392,o),
(584,456,o),
(584,502,cs),
(584,649,o),
(510,711,o),
(337,711,cs),
(139,711,o),
(65,654,o),
(65,502,cs),
(65,49,ls),
(65,18,o),
(84,-4,o),
(110,-4,cs)
);
},
{
closed = 1;
nodes = (
(198,193,ls),
(198,288,o),
(229,316,o),
(337,316,cs),
(445,316,o),
(473,295,o),
(473,213,cs),
(473,128,o),
(449,110,o),
(337,110,cs),
(198,110,l)
);
},
{
closed = 1;
nodes = (
(198,416,o),
(199,429,o),
(199,512,cs),
(199,571,o),
(241,597,o),
(337,597,cs),
(422,597,o),
(458,569,o),
(458,502,cs),
(458,440,o),
(437,427,o),
(337,427,cs),
(267,427,o),
(213,414,o),
(192,393,c)
);
}
);
width = 653;
}
);
metricLeft = "=A";
metricRight = O;
note = B;
unicode = 66;
},
{
glyphname = D;
lastChange = "2023-11-08 20:59:59 +0000";
layers = (
{
anchors = (
{
name = bottom;
pos = (352,0);
},
{
name = center;
pos = (352,350);
},
{
name = top;
pos = (352,700);
}
);
hints = (
{
horizontal = 1;
place = (652,72);
type = Stem;
},
{
horizontal = 1;
place = (-25,73);
type = Stem;
},
{
place = (389,90);
type = Stem;
},
{
place = (51,90);
type = Stem;
}
);
layerId = "2F065738-4B59-43EB-A5F2-FD5F277958EA";
shapes = (
{
closed = 1;
nodes = (
(318,-2,ls),
(534,-2,o),
(620,98,o),
(620,350,cs),
(620,601,o),
(534,702,o),
(321,702,cs),
(118,702,ls),
(90,702,o),
(70,686,o),
(70,664,cs),
(70,36,ls),
(70,14,o),
(90,-2,o),
(118,-2,cs)
);
},
{
closed = 1;
nodes = (
(220,570,l),
(321,570,ls),
(448,570,o),
(471,536,o),
(471,350,cs),
(471,161,o),
(449,129,o),
(321,129,cs),
(220,129,l)
);
}
);
width = 674;
}
);
metricLeft = H;
metricRight = O;
note = D;
unicode = 68;
},
{
glyphname = E;
lastChange = "2023-11-08 20:59:50 +0000";
layers = (
{
anchors = (
{
name = bottom;
pos = (304,0);
},
{
name = ogonek;
pos = (515,10);
},
{
name = top;
pos = (331,700);
},
{
name = topleft;
pos = (59,700);
}
);
hints = (
{
horizontal = 1;
place = (652,72);
type = Stem;
},
{
horizontal = 1;
place = (314,72);
type = Stem;
},
{
horizontal = 1;
place = (-25,71);
type = Stem;
},
{
place = (51,90);
type = Stem;
}
);
layerId = "2F065738-4B59-43EB-A5F2-FD5F277958EA";
shapes = (
{
closed = 1;
nodes = (
(460,0,ls),
(502,0,o),
(520,19,o),
(520,64,cs),
(520,110,o),
(501,132,o),
(460,132,cs),
(350,132,ls),
(232,132,o),
(204,147,o),
(204,211,cs),
(204,272,o),
(227,291,o),
(302,291,cs),
(433,291,ls),
(461,291,o),
(482,319,o),
(482,357,cs),
(482,395,o),
(462,421,o),
(433,421,cs),
(290,421,ls),
(256,421,o),
(219,409,o),
(196,390,c),
(200,416,o),
(204,469,o),
(204,501,cs),
(204,565,o),
(210,568,o),
(361,568,cs),
(460,568,ls),
(496,568,o),
(520,594,o),
(520,633,cs),
(520,673,o),
(496,700,o),
(460,700,cs),
(274,700,ls),
(145,700,o),
(70,636,o),
(70,525,cs),
(70,140,ls),
(70,50,o),
(133,0,o),
(247,0,cs)
);
}
);
width = 574;
}
);
metricLeft = H;
metricRight = O;
note = E;
unicode = 69;
},
{
glyphname = F;
lastChange = "2023-11-08 20:59:27 +0000";
layers = (
{
anchors = (
{
name = bottom;
pos = (305,0);
},
{
name = top;
pos = (305,700);
}
);
background = {
shapes = (
{
closed = 1;
nodes = (
(151,-12,o),
(196,-3,o),
(196,22,cs),
(196,223,ls),
(196,277,o),
(203,302,o),
(259,302,cs),
(433,302,ls),
(447,302,o),
(466,316,o),
(466,357,cs),
(466,409,o),
(447,411,o),
(433,411,cs),
(279,411,ls),
(249,411,o),
(219,405,o),
(193,394,c),
(200,422,o),
(200,465,o),
(200,509,cs),
(200,596,o),
(286,592,o),
(345,592,cs),
(471,592,ls),
(488,592,o),
(504,599,o),
(504,648,c),
(504,680,o),
(493,700,o),
(471,700,cs),
(258,700,ls),
(148,700,o),
(75,636,o),
(75,549,cs),
(75,24,ls),
(75,1,o),
(111,-12,o),
(136,-12,cs)
);
}
);
};
hints = (
{
horizontal = 1;
place = (652,72);
type = Stem;
},
{
horizontal = 1;
place = (313,72);
type = Stem;
},
{
horizontal = 1;
place = (-24,21);
target = up;
type = BottomGhost;
},
{
place = (51,89);
type = Stem;
}
);
layerId = "2F065738-4B59-43EB-A5F2-FD5F277958EA";
shapes = (
{
closed = 1;
nodes = (
(184,-11,o),
(205,6,o),
(205,47,cs),
(205,204,ls),
(205,274,o),
(226,293,o),
(302,293,cs),
(433,293,ls),
(461,293,o),
(482,320,o),
(482,357,cs),
(482,395,o),
(462,421,o),
(433,421,cs),
(290,421,ls),
(256,421,o),
(219,409,o),
(196,390,c),
(200,425,o),
(204,475,o),
(204,501,cs),
(204,560,o),
(222,568,o),
(361,568,cs),
(460,568,ls),
(495,568,o),
(520,596,o),
(520,633,cs),
(520,672,o),
(495,700,o),
(460,700,cs),
(274,700,ls),
(145,700,o),
(70,636,o),
(70,525,cs),
(70,47,ls),
(70,6,o),
(89,-11,o),
(136,-11,cs)
);
}
);
width = 574;
}
);
metricLeft = H;
metricRight = O;
note = F;
unicode = 70;
},
{
glyphname = G;
lastChange = "2023-11-08 20:59:39 +0000";
layers = (
{
anchors = (
{
name = bottom;
pos = (318,0);
},
{
name = top;
pos = (318,700);
}
);
background = {
shapes = (
{
closed = 0;
nodes = (
(443,515,ls),
(443,470,o),
(475,453,o),
(515,453,cs),
(567,453,o),
(587,478,o),
(587,515,cs)
);
}
);
};
hints = (
{
horizontal = 1;
place = (653,71);
type = Stem;
},
{
horizontal = 1;
place = (314,72);
type = Stem;
},
{
horizontal = 1;
place = (-24,72);
type = Stem;
},
{
place = (389,90);
type = Stem;
},
{
place = (51,90);
type = Stem;
}
);
layerId = "2F065738-4B59-43EB-A5F2-FD5F277958EA";
shapes = (
{
closed = 1;
nodes = (
(498,-11,o),
(592,91,o),
(592,277,cs),
(592,377,o),
(586,386,o),
(521,386,cs),
(359,386,ls),
(325,386,o),
(305,366,o),
(305,330,cs),
(305,294,o),
(324,275,o),
(359,275,cs),
(447,275,l),
(447,240,ls),
(447,159,o),
(409,121,o),
(326,121,cs),
(233,121,o),
(202,183,o),
(202,370,cs),
(202,524,o),
(235,580,o),
(326,580,cs),
(396,580,o),
(434,554,o),
(434,507,cs),
(434,467,o),
(460,445,o),
(506,445,cs),
(557,445,o),
(578,469,o),
(578,527,cs),
(578,642,o),
(483,712,o),
(326,712,cs),
(150,712,o),
(54,592,o),
(54,370,cs),
(54,99,o),
(133,-11,o),
(326,-11,cs)
);
}
);
width = 646;
}
);
metricLeft = O;
metricRight = O;
note = G;
unicode = 71;
},
{
color = 5;
glyphname = H;
lastChange = "2023-11-08 20:50:22 +0000";
layers = (
{
hints = (
{
horizontal = 1;
place = (724,-20);
target = down;
type = TopGhost;
},
{
horizontal = 1;
place = (315,71);
type = Stem;
},
{
horizontal = 1;
place = (-24,21);
target = up;
type = BottomGhost;
},
{
place = (389,90);
type = Stem;
},
{
place = (51,90);
type = Stem;
}
);
layerId = "2F065738-4B59-43EB-A5F2-FD5F277958EA";
shapes = (
{
closed = 1;
nodes = (
(193,-11,o),
(214,9,o),
(214,56,cs),
(214,195,ls),
(214,288,o),
(241,314,o),
(335,314,cs),
(400,314,o),
(454,331,o),
(462,355,c),
(462,56,ls),
(462,11,o),
(486,-11,o),
(534,-11,cs),
(585,-11,o),
(606,9,o),
(606,56,cs),
(606,644,ls),
(606,689,o),
(582,711,o),
(534,711,cs),
(483,711,o),
(462,691,o),
(462,644,cs),
(462,442,l),
(353,442,ls),
(279,442,o),
(241,430,o),
(207,396,c),
(212,415,o),
(214,467,o),
(214,544,cs),
(214,644,ls),
(214,689,o),
(190,711,o),
(142,711,cs),
(91,711,o),
(70,691,o),
(70,644,cs),
(70,56,ls),
(70,11,o),
(94,-11,o),
(142,-11,cs)
);
}
);
width = 676;
}
);
metricRight = "=|";
note = H;
unicode = 72;
},
{
glyphname = I;
lastChange = "2023-11-08 20:51:47 +0000";
layers = (
{
anchors = (
{
name = bottom;
pos = (284,0);
},
{
name = ogonek;
pos = (495,10);
},
{
name = top;
pos = (284,700);
},
{
name = topleft;
pos = (39,700);
}
);
background = {
shapes = (
{
closed = 1;
nodes = (
(149,587,o),
(226,579,o),
(226,579,c),
(226,46,ls),
(226,3,o),
(264,-13,o),
(297,-13,cs),
(330,-13,o),
(368,3,o),
(368,46,cs),
(372,579,l),
(491,579,ls),
(533,579,o),
(542,613,o),
(542,640,c),
(542,658,o),
(536,700,o),
(491,700,cs),
(197,700,ls),
(87,700,o),
(44,668,o),
(44,579,cs),
(44,540,o),
(44,444,o),
(122,444,cs),
(140,444,o),
(153,460,o),
(154,478,cs),
(157,521,o),
(116,530,o),
(128,566,c)
);
}
);
};
hints = (
{
horizontal = 1;
place = (652,72);
type = Stem;
},
{
horizontal = 1;
place = (-24,72);
type = Stem;
},
{
place = (220,90);
type = Stem;
}
);
layerId = "2F065738-4B59-43EB-A5F2-FD5F277958EA";
shapes = (
{
closed = 1;
nodes = (
(127,122,ls),
(87,122,o),
(70,104,o),
(70,62,cs),
(70,19,o),
(87,0,o),
(127,0,cs),
(478,0,ls),
(523,0,o),
(542,19,o),
(542,62,cs),
(542,104,o),
(523,122,o),
(478,122,cs),
(378,122,l),
(378,515,ls),
(378,562,o),
(374,572,o),
(354,578,c),
(478,578,ls),
(523,578,o),
(542,597,o),
(542,640,cs),
(542,682,o),
(523,700,o),
(478,700,cs),
(127,700,ls),
(87,700,o),
(70,682,o),
(70,640,cs),
(70,597,o),
(87,578,o),
(127,578,cs),
(234,578,l),
(234,122,l)
);
}
);
width = 568;
}
);
note = I;
unicode = 73;
},
{
glyphname = M;
lastChange = "2023-11-08 20:55:48 +0000";
layers = (
{
anchors = (
{
name = bottom;
pos = (445,0);
},
{
name = top;
pos = (450,700);
}
);
background = {
shapes = (
{
closed = 1;
nodes = (
(152,713,o),
(64,647,o),
(64,490,cs),
(64,66,ls),
(64,18,o),
(84,-12,o),
(136,-12,cs),
(188,-12,o),
(208,18,o),
(208,66,cs),
(208,494,ls),
(208,548,o),
(233,593,o),
(293,593,cs),
(353,593,o),
(378,548,o),
(378,494,cs),
(378,66,ls),
(378,18,o),
(398,-12,o),
(450,-12,cs),
(502,-12,o),
(522,18,o),
(522,66,cs),
(522,490,ls),
(522,647,o),
(434,713,o),
(293,713,cs)
);
},
{
closed = 1;
nodes = (
(466,713,o),
(378,647,o),
(378,490,cs),
(378,66,ls),
(378,18,o),
(398,-12,o),
(450,-12,cs),
(502,-12,o),
(522,18,o),
(522,66,cs),
(522,494,ls),
(522,548,o),
(547,593,o),
(607,593,cs),
(667,593,o),
(692,548,o),
(692,494,cs),
(692,66,ls),
(692,18,o),
(712,-12,o),
(764,-12,cs),
(816,-12,o),
(836,18,o),
(836,66,cs),
(836,490,ls),
(836,647,o),
(748,713,o),
(607,713,cs)
);
}
);
};
hints = (
{
horizontal = 1;
place = (652,72);
type = Stem;
},
{
horizontal = 1;
place = (-23,21);
target = up;
type = BottomGhost;
},
{
horizontal = 1;
place = (-24,21);
target = up;
type = BottomGhost;
},
{
place = (727,90);
type = Stem;
},
{
place = (389,90);
type = Stem;
},
{
place = (51,90);
type = Stem;
}
);
layerId = "2F065738-4B59-43EB-A5F2-FD5F277958EA";
shapes = (
{
closed = 1;
nodes = (
(188,-11,o),
(209,9,o),
(209,56,cs),
(209,480,ls),
(209,552,o),
(231,579,o),
(290,579,cs),
(352,579,o),
(379,549,o),
(379,480,cs),
(379,56,ls),
(379,11,o),
(403,-11,o),
(451,-11,cs),
(502,-11,o),
(523,9,o),
(523,56,cs),
(523,480,ls),
(523,552,o),
(546,579,o),
(607,579,cs),
(669,579,o),
(693,552,o),
(693,480,cs),
(693,56,ls),
(693,11,o),
(717,-11,o),
(765,-11,cs),
(816,-11,o),
(837,9,o),
(837,56,cs),
(837,482,ls),
(837,631,o),
(761,711,o),
(619,711,cs),
(554,711,o),
(494,683,o),
(450,631,c),
(404,683,o),
(347,710,o),
(284,710,cs),
(145,710,o),
(65,626,o),
(65,481,cs),
(65,56,ls),
(65,11,o),
(89,-11,o),
(137,-11,cs)
);
}
);
width = 902;
}
);
metricLeft = "=A";
metricRight = "=|";
note = M;
unicode = 77;
},
{
glyphname = N;
lastChange = "2023-11-08 20:57:25 +0000";
layers = (
{
anchors = (
{
name = bottom;
pos = (333,0);
},
{
name = top;
pos = (333,700);
}
);
hints = (
{
horizontal = 1;
place = (652,72);
type = Stem;
},
{
horizontal = 1;
place = (-23,21);
target = up;
type = BottomGhost;
},
{
horizontal = 1;
place = (-24,21);
target = up;
type = BottomGhost;
},
{
place = (389,90);
type = Stem;
},
{
place = (51,90);
type = Stem;
},
{
horizontal = 1;
place = (-24,21);
target = up;
type = BottomGhost;
},
{
horizontal = 1;
place = (-23,21);
target = up;
type = BottomGhost;
},
{
horizontal = 1;
place = (724,-72);
type = Stem;
},
{
place = (277,-90);
type = Stem;
},
{
place = (615,-90);
type = Stem;
}
);
layerId = "2F065738-4B59-43EB-A5F2-FD5F277958EA";
shapes = (
{
closed = 1;
nodes = (
(185,-11,o),
(209,15,o),
(209,67,cs),
(209,492,ls),
(209,557,o),
(252,591,o),
(336,591,cs),
(418,591,o),
(457,559,o),
(457,492,cs),
(457,67,ls),
(457,15,o),
(481,-11,o),
(529,-11,cs),
(577,-11,o),
(601,15,o),
(601,67,cs),
(601,488,ls),
(601,638,o),
(514,711,o),
(336,711,cs),
(156,711,o),
(65,636,o),
(65,488,cs),
(65,67,ls),
(65,15,o),
(89,-11,o),
(137,-11,cs)
);
}
);
width = 666;
}
);
note = N;
unicode = 78;
},
{
glyphname = O;
lastChange = "2023-11-08 20:59:23 +0000";
layers = (
{
anchors = (
{
name = bottom;
pos = (329,0);
},
{
name = center;
pos = (329,350);
},
{
name = ogonek;
pos = (583,0);
},
{
name = top;
pos = (329,700);
},
{
name = topleft;
pos = (16,700);
},
{
name = topright;
pos = (642,700);
}
);
hints = (
{
horizontal = 1;
place = (652,72);
type = Stem;
},
{
horizontal = 1;
place = (-24,72);
type = Stem;
},
{
place = (389,90);
type = Stem;
},
{
place = (51,90);
type = Stem;
}
);
layerId = "2F065738-4B59-43EB-A5F2-FD5F277958EA";
shapes = (
{
closed = 1;
nodes = (
(519,-12,o),
(604,99,o),
(604,350,cs),
(604,601,o),
(519,712,o),
(329,712,cs),
(139,712,o),
(54,601,o),
(54,350,cs),
(54,99,o),
(139,-12,o),
(329,-12,cs)
);
},
{
closed = 1;
nodes = (
(233,120,o),
(204,174,o),
(204,350,cs),
(204,526,o),
(233,580,o),
(329,580,cs),
(425,580,o),
(454,526,o),
(454,350,cs),
(454,174,o),
(425,120,o),
(329,120,cs)
);
}
);
width = 658;
}
);
note = O;
unicode = 79;
},
{
glyphname = P;
lastChange = "2023-11-08 20:59:27 +0000";
layers = (
{
anchors = (
{
name = bottom;
pos = (334,0);
},
{
name = top;
pos = (334,700);
}
);
hints = (
{
horizontal = 1;
place = (653,71);
type = Stem;
},
{
horizontal = 1;
place = (314,72);
type = Stem;
},
{
horizontal = 1;
place = (-24,21);
target = up;
type = BottomGhost;
},
{
place = (389,90);
type = Stem;
},
{
place = (51,90);
type = Stem;
}
);
layerId = "2F065738-4B59-43EB-A5F2-FD5F277958EA";
shapes = (
{
closed = 1;
nodes = (
(191,-11,o),
(214,8,o),
(214,45,cs),
(214,199,ls),
(214,284,o),
(243,306,o),
(357,306,cs),
(528,306,o),
(608,368,o),
(608,502,cs),
(608,648,o),
(528,711,o),
(345,711,cs),
(164,711,o),
(70,634,o),
(70,486,cs),
(70,45,ls),
(70,10,o),
(98,-11,o),
(144,-11,cs)
);
},
{
closed = 1;
nodes = (
(212,432,o),
(214,466,o),
(214,525,cs),
(214,575,o),
(255,597,o),
(346,597,cs),
(443,597,o),
(482,570,o),
(482,502,cs),
(482,438,o),
(460,427,o),
(329,427,cs),
(278,427,o),
(228,413,o),
(205,393,c)
);
}
);
width = 662;
}
);
metricLeft = H;
metricRight = O;
note = P;
unicode = 80;
},
{
glyphname = Q;
lastChange = "2023-11-08 21:02:39 +0000";
layers = (
{
anchors = (
{
name = bottom;
pos = (265,0);
},
{
name = top;
pos = (329,712);
}
);
hints = (
{
horizontal = 1;
place = (652,72);
type = Stem;
},
{
horizontal = 1;
place = (-24,72);
type = Stem;
},
{
horizontal = 1;
place = (-20,21);
target = up;
type = BottomGhost;
},
{
place = (389,90);
type = Stem;
},
{
place = (274,92);
type = Stem;
},
{
place = (51,90);
type = Stem;
}
);
layerId = "2F065738-4B59-43EB-A5F2-FD5F277958EA";
shapes = (
{
closed = 1;
nodes = (
(431,-120,ls),
(448,-134,o),
(463,-140,o),
(477,-140,cs),
(494,-140,o),
(509,-131,o),
(524,-113,cs),
(536,-98,o),
(542,-84,o),
(542,-71,cs),
(542,-54,o),
(532,-37,o),
(511,-21,cs),
(353,103,ls),
(339,114,o),
(326,119,o),
(313,119,cs),
(297,119,o),
(282,110,o),
(267,91,cs),
(253,74,o),
(246,59,o),
(246,46,cs),
(246,31,o),
(254,18,o),
(272,4,cs)
);
},
{
ref = O;
}
);
width = 658;
}
);
note = Q;
unicode = 81;
},
{
glyphname = R;
lastChange = "2023-11-08 21:04:09 +0000";
layers = (
{
anchors = (
{
name = bottom;
pos = (330,0);
},
{
name = top;
pos = (330,700);
}
);
background = {
shapes = (
{
closed = 0;
nodes = (
(470,45,l),
(470,18,o),
(496,-11,o),
(539,-11,cs),
(579,-11,o),
(606,13,o),
(606,45,cs)
);
}
);
};
hints = (
{
horizontal = 1;
place = (653,71);
type = Stem;
},
{
horizontal = 1;
place = (314,72);
type = Stem;
},
{
horizontal = 1;
place = (-24,21);
target = up;
type = BottomGhost;
},
{
place = (389,90);
type = Stem;
},
{
place = (51,90);
type = Stem;
}
);
layerId = "2F065738-4B59-43EB-A5F2-FD5F277958EA";
shapes = (
{
closed = 1;
nodes = (
(180,-10,o),
(210,13,o),
(210,46,cs),
(210,199,ls),
(210,286,o),
(247,320,o),
(339,320,cs),
(435,320,o),
(460,288,o),
(460,161,cs),
(460,46,ls),
(460,8,o),
(487,-11,o),
(542,-11,cs),
(581,-11,o),
(606,15,o),
(606,56,cs),
(606,235,ls),
(606,279,o),
(580,323,o),
(535,352,c),
(579,376,o),
(605,431,o),
(605,502,cs),
(605,649,o),
(526,711,o),
(339,711,cs),
(145,711,o),
(66,646,o),
(66,486,cs),
(66,46,ls),
(66,16,o),
(100,-10,o),
(139,-10,cs)
);
},
{
closed = 1;
nodes = (
(208,433,o),
(210,471,o),
(210,525,cs),
(210,573,o),
(255,597,o),
(343,597,cs),
(437,597,o),
(479,567,o),
(479,502,cs),
(479,441,o),
(453,427,o),
(343,427,cs),
(272,427,o),
(230,417,o),
(202,393,c)
);
}
);
width = 675;
}
);
note = R;
unicode = 82;
},
{
glyphname = S;
lastChange = "2023-11-08 18:21:54 +0000";
layers = (
{
anchors = (
{
name = bottom;
pos = (338,0);
},
{
name = top;
pos = (338,700);
}
);
background = {
shapes = (
{
pos = (1,0);
ref = O;
}
);
};
guides = (
{
angle = 90;
pos = (343,712);
}
);
hints = (
{
horizontal = 1;
place = (653,72);
type = Stem;
},
{
horizontal = 1;
place = (314,72);
type = Stem;
},
{
horizontal = 1;
place = (-24,72);
type = Stem;
},
{
place = (388,90);
type = Stem;
},
{
place = (51,90);
type = Stem;
}
);
layerId = "2F065738-4B59-43EB-A5F2-FD5F277958EA";
shapes = (
{
closed = 1;
nodes = (
(223,562,o),
(270,592,o),
(344,592,cs),
(395,592,o),
(417,574,o),
(438,533,c),
(452,502,o),
(458,480,o),
(525,480,cs),
(542,480,o),
(588,486,o),
(588,516,cs),
(588,581,o),
(515,712,o),
(344,712,cs),
(212,712,o),
(78,652,o),
(80,482,cs),
(82,356,o),
(187,331,o),
(291,313,cs),
(334,306,o),
(455,302,o),
(455,222,cs),
(455,148,o),
(398,108,o),
(342,108,cs),
(260,108,o),
(232,154,o),
(227,187,cs),
(222,218,o),
(218,240,o),
(149,240,cs),
(81,240,o),
(81,199,o),
(82,176,cs),
(84,119,o),
(159,-12,o),
(343,-12,cs),
(463,-12,o),
(598,49,o),
(598,222,cs),
(598,330,o),
(550,382,o),
(395,407,cs),
(290,424,o),
(223,429,o),
(223,482,cs)
);
}
);
width = 668;
}
);
note = S;
unicode = 83;
},
{
glyphname = T;
lastChange = "2023-11-08 15:44:00 +0000";
layers = (
{
anchors = (
{
name = bottom;
pos = (316,0);
},
{
name = center;
pos = (316,350);
},
{
name = top;
pos = (316,700);
}
);
hints = (
{
horizontal = 1;
place = (651,73);
type = Stem;
},
{
horizontal = 1;
place = (-24,21);
target = up;
type = BottomGhost;
},
{
place = (220,91);
type = Stem;
},
{
place = (51,89);
type = Stem;
}
);
layerId = "2F065738-4B59-43EB-A5F2-FD5F277958EA";
shapes = (
{
closed = 1;
nodes = (
(175,587,o),
(252,579,o),
(252,579,c),
(252,46,ls),
(252,3,o),
(290,-13,o),
(323,-13,cs),
(356,-13,o),
(394,3,o),
(394,46,cs),
(398,579,l),
(517,579,ls),
(559,579,o),
(568,613,o),
(568,640,c),
(568,658,o),
(562,700,o),
(517,700,cs),
(223,700,ls),
(113,700,o),
(70,668,o),
(70,579,cs),
(70,540,o),
(70,444,o),
(148,444,cs),
(166,444,o),
(179,460,o),
(180,478,cs),
(183,521,o),
(142,530,o),
(154,566,c)
);
}
);
width = 638;
}
);
note = T;
unicode = 84;
},
{
glyphname = U;
lastChange = "2023-11-08 20:56:29 +0000";
layers = (
{
anchors = (
{
name = bottom;
pos = (332,0);
},
{
name = ogonek;
pos = (543,10);
},
{
name = top;
pos = (332,700);
},
{
name = topright;
pos = (576,700);
}
);
hints = (
{
horizontal = 1;
place = (724,-20);
target = down;
type = TopGhost;
},
{
horizontal = 1;
place = (723,-20);
target = down;
type = TopGhost;
},
{
horizontal = 1;
place = (-24,72);
type = Stem;
},
{
place = (389,90);
type = Stem;
},
{
place = (51,90);
type = Stem;
}
);
layerId = "2F065738-4B59-43EB-A5F2-FD5F277958EA";
shapes = (
{
closed = 1;
nodes = (
(510,-11,o),
(601,64,o),
(601,212,cs),
(601,633,ls),
(601,685,o),
(577,711,o),
(529,711,cs),
(481,711,o),
(457,685,o),
(457,633,cs),
(457,208,ls),
(457,143,o),
(414,109,o),
(330,109,cs),
(248,109,o),
(209,141,o),
(209,208,cs),
(209,633,ls),
(209,685,o),
(185,711,o),
(137,711,cs),
(89,711,o),
(65,685,o),
(65,633,cs),
(65,212,ls),
(65,62,o),
(152,-11,o),
(330,-11,cs)
);
}
);
width = 666;
}
);
metricLeft = "=A";
metricRight = "=|";
note = U;
unicode = 85;
},
{
glyphname = V;
lastChange = "2023-11-08 15:44:00 +0000";
layers = (
{
anchors = (
{
name = bottom;
pos = (329,0);
},
{
name = top;
pos = (329,700);
}
);
annotations = (
{
pos = (328,293);
type = Text;
}
);
hints = (
{
horizontal = 1;
place = (724,-20);
target = down;
type = TopGhost;
},
{
horizontal = 1;
place = (-23,71);
type = Stem;
},
{
place = (388,89);
type = Stem;
},
{
place = (51,90);
type = Stem;
}
);
layerId = "2F065738-4B59-43EB-A5F2-FD5F277958EA";
shapes = (
{
closed = 1;
nodes = (
(484,0,o),
(568,74,o),
(568,223,cs),
(568,634,ls),
(568,682,o),
(548,712,o),
(496,712,cs),
(444,712,o),
(424,682,o),
(424,634,cs),
(424,219,ls),
(424,153,o),
(388,120,o),
(316,120,cs),
(248,120,o),
(214,153,o),
(214,219,cs),
(214,634,ls),
(214,682,o),
(194,712,o),
(142,712,cs),
(90,712,o),
(70,682,o),
(70,634,cs),
(70,223,ls),
(70,0,o),
(70,0,o),
(70,0,cs),
(70,0,o),
(238,0,o),
(316,0,cs)
);
}
);
width = 676;
}
);
note = V;
unicode = 86;
},
{
glyphname = W;
lastChange = "2023-11-08 15:44:00 +0000";
layers = (
{
anchors = (
{
name = bottom;
pos = (434,0);
},
{
name = top;
pos = (434,700);
}
);
hints = (
{
horizontal = 1;
place = (724,-20);
target = down;
type = TopGhost;
},
{
horizontal = 1;
place = (723,-20);
target = down;
type = TopGhost;
},
{
horizontal = 1;
place = (-24,72);
type = Stem;
},
{
place = (727,89);
type = Stem;
},
{
place = (388,91);
type = Stem;
},
{
place = (51,90);
type = Stem;
}
);
layerId = "2F065738-4B59-43EB-A5F2-FD5F277958EA";
shapes = (
{
closed = 1;
nodes = (
(422,712,o),
(384,697,o),
(384,654,cs),
(384,206,ls),
(384,104,o),
(305,107,o),
(295,107,cs),
(287,107,o),
(213,107,o),
(213,206,cs),
(213,654,ls),
(213,689,o),
(184,713,o),
(142,713,cs),
(99,713,o),
(70,689,o),
(70,654,cs),
(70,217,ls),
(70,6,o),
(213,-12,o),
(289,-12,cs),
(383,-12,o),
(432,41,o),
(455,67,c),
(477,41,o),
(526,-13,o),
(624,-13,cs),
(765,-13,o),
(839,66,o),
(839,216,cs),
(839,654,ls),
(839,689,o),
(809,713,o),
(766,713,cs),
(725,713,o),
(698,690,o),
(698,654,cs),
(698,206,ls),
(698,150,o),
(661,107,o),
(612,107,cs),
(559,107,o),
(526,145,o),
(526,206,cs),
(526,654,ls),
(526,689,o),
(498,712,o),
(455,712,cs)
);
}
);
width = 867;
}
);
note = W;
unicode = 87;
},
{
glyphname = X;
lastChange = "2023-11-08 15:44:00 +0000";
layers = (
{
anchors = (
{
name = bottom;
pos = (289,0);
},
{
name = top;
pos = (289,700);
}
);
hints = (
{
horizontal = 1;
place = (653,71);
type = Stem;
},
{
horizontal = 1;
place = (-24,71);
type = Stem;
},
{
place = (244,90);
type = Stem;
}
);
layerId = "2F065738-4B59-43EB-A5F2-FD5F277958EA";
shapes = (
{
closed = 1;
nodes = (
(229,695,o),
(190,712,o),
(148,712,cs),
(95,712,ls),
(75,712,o),
(50,692,o),
(50,669,cs),
(50,635,o),
(69,625,o),
(95,625,cs),
(226,625,o),
(210,381,o),
(210,345,cs),
(210,237,o),
(205,116,o),
(128,81,cs),
(104,70,o),
(78,80,o),
(60,60,cs),
(54,53,o),
(51,47,o),
(51,23,cs),
(51,0,o),
(76,-13,o),
(96,-13,cs),
(148,-13,ls),
(191,-13,o),
(230,2,o),
(258,30,cs),
(259,31,l),
(260,30,ls),
(288,2,o),
(327,-13,o),
(370,-13,cs),
(422,-13,ls),
(442,-13,o),
(467,0,o),
(467,23,cs),
(467,47,o),
(464,53,o),
(458,60,cs),
(440,80,o),
(414,70,o),
(390,81,cs),
(313,116,o),
(308,237,o),
(308,345,cs),
(308,381,o),
(292,625,o),
(423,625,cs),
(449,625,o),
(468,635,o),
(468,669,cs),
(468,692,o),
(443,712,o),
(423,712,cs),
(370,712,ls),
(328,712,o),
(289,695,o),
(260,669,cs),
(259,668,l),
(258,669,ls)
);
}
);
width = 577;
}
);
note = X;
unicode = 88;
},
{
glyphname = A.ss01;
lastChange = "2023-11-08 18:25:03 +0000";
layers = (
{
anchors = (
{
name = bottom;
pos = (265,0);
},
{
name = ogonek;
pos = (54,10);
},
{
name = top;
pos = (265,700);
}
);
hints = (
{
horizontal = 1;
place = (-122,458);
type = Stem;
},
{
horizontal = 1;
place = (218,457);
type = Stem;
},
{
horizontal = 1;
place = (554,21);
target = up;
type = BottomGhost;
},
{
place = (142,440);
type = Stem;
},
{
place = (479,440);
type = Stem;
}
);
layerId = "2F065738-4B59-43EB-A5F2-FD5F277958EA";
shapes = (
{
closed = 1;
nodes = (
(455,-24,o),
(479,-11,o),
(479,12,cs),
(479,573,ls),
(479,660,o),
(403,724,o),
(319,724,cs),
(120,724,ls),
(95,724,o),
(51,724,o),
(51,688,cs),
(51,12,ls),
(51,-11,o),
(76,-24,o),
(96,-24,cs),
(115,-24,o),
(132,-15,o),
(140,3,cs),
(143,9,o),
(142,232,o),
(142,252,cs),
(142,272,o),
(142,292,o),
(142,312,c),
(225,312,o),
(307,313,o),
(389,313,c),
(389,218,o),
(389,123,o),
(389,28,cs),
(389,18,o),
(388,8,o),
(392,0,cs),
(401,-17,o),
(418,-24,o),
(434,-24,cs)
);
},
{
closed = 1;
nodes = (
(142,474,o),
(141,563,o),
(141,652,c),
(200,652,o),
(259,652,o),
(318,652,cs),
(350,652,o),
(376,628,o),
(385,599,cs),
(390,583,o),
(390,551,o),
(390,534,cs),
(390,485,o),
(390,435,o),
(390,386,c),
(307,386,o),
(225,385,o),
(142,385,c)
);
}
);
width = 529;
}
);
note = A.ss01;
},
{
glyphname = B.ss01;
lastChange = "2023-11-08 15:44:00 +0000";
layers = (
{
anchors = (
{
name = bottom;
pos = (264,0);
},
{
name = center;
pos = (264,350);
},
{
name = top;
pos = (264,700);
}
);
hints = (
{
horizontal = 1;
place = (652,72);
type = Stem;
},
{
horizontal = 1;
place = (315,71);
type = Stem;
},
{
horizontal = 1;
place = (-24,72);
type = Stem;
},
{
place = (388,90);
type = Stem;
},
{
place = (50,90);
type = Stem;
}
);
layerId = "2F065738-4B59-43EB-A5F2-FD5F277958EA";
shapes = (
{
closed = 1;
nodes = (
(318,-24,ls),
(402,-24,o),
(478,40,o),
(478,127,cs),
(478,235,ls),
(478,282,o),
(455,323,o),
(421,350,c),
(455,377,o),
(478,418,o),
(478,466,cs),
(478,574,ls),
(478,660,o),
(402,724,o),
(318,724,cs),
(95,724,ls),
(75,724,o),
(50,711,o),
(50,688,cs),
(50,17,ls),
(50,-9,o),
(70,-24,o),
(95,-24,cs)
);
},
{
closed = 1;
nodes = (
(140,314,l),
(196,314,o),
(252,315,o),
(308,315,cs),
(355,315,o),
(388,281,o),
(388,234,cs),
(388,128,ls),
(388,88,o),
(359,48,o),
(317,48,cs),
(140,48,l)
);
},
{
closed = 1;
nodes = (
(140,652,l),
(317,652,ls),
(359,652,o),
(388,613,o),
(388,573,cs),
(388,466,ls),
(388,432,o),
(366,398,o),
(336,389,cs),
(329,387,o),
(320,386,o),
(311,386,cs),
(308,386,o),
(306,386,o),
(304,386,cs),
(249,386,o),
(195,386,o),
(140,386,c)
);
}
);
width = 528;
}
);
note = B.ss01;
},
{
glyphname = A.ss02;
lastChange = "2023-11-08 18:25:12 +0000";
layers = (
{
anchors = (
{
name = bottom;
pos = (265,0);
},
{
name = ogonek;
pos = (54,10);
},
{
name = top;
pos = (265,700);
}
);
hints = (
{
horizontal = 1;
place = (-122,458);
type = Stem;
},
{
horizontal = 1;
place = (216,458);
type = Stem;
},
{
horizontal = 1;
place = (554,21);
target = up;
type = BottomGhost;
},
{
place = (141,440);
type = Stem;
},
{
place = (479,440);
type = Stem;
}
);
layerId = "2F065738-4B59-43EB-A5F2-FD5F277958EA";
shapes = (
{
closed = 1;
nodes = (
(455,-24,o),
(479,-11,o),
(479,12,cs),
(479,573,ls),
(479,660,o),
(403,724,o),
(319,724,cs),
(120,724,ls),
(95,724,o),
(51,724,o),
(51,688,cs),
(51,12,ls),
(51,-11,o),
(76,-24,o),
(96,-24,cs),
(114,-24,o),
(132,-16,o),
(140,3,cs),
(142,8,o),
(142,211,o),
(142,243,cs),
(142,279,o),
(174,314,o),
(212,314,cs),
(389,313,l),
(389,218,o),
(389,123,o),
(389,28,cs),
(389,18,o),
(388,8,o),
(392,0,cs),
(401,-17,o),
(418,-24,o),
(434,-24,cs)
);
},
{
closed = 1;
nodes = (
(142,464,o),
(141,558,o),
(141,652,c),
(200,652,o),
(259,652,o),
(318,652,cs),
(350,652,o),
(376,628,o),
(385,599,cs),
(390,583,o),
(390,551,o),
(390,534,cs),
(390,485,o),
(390,435,o),
(390,386,c),
(211,386,ls),
(187,386,o),
(163,380,o),
(142,371,c)
);
}
);
width = 529;
}
);
note = A.ss02;
},
{
glyphname = B.ss02;
lastChange = "2023-11-08 15:44:00 +0000";
layers = (
{
anchors = (
{
name = bottom;
pos = (265,0);
},
{
name = center;
pos = (265,350);
},
{
name = top;
pos = (265,700);
}
);
hints = (
{
horizontal = 1;
place = (652,72);
type = Stem;
},
{
horizontal = 1;
place = (315,72);
type = Stem;
},
{
horizontal = 1;
place = (-24,72);
type = Stem;
},
{
place = (389,90);
type = Stem;
},
{
place = (51,90);
type = Stem;
}
);
layerId = "2F065738-4B59-43EB-A5F2-FD5F277958EA";
shapes = (
{
closed = 1;
nodes = (
(319,-24,ls),
(403,-24,o),
(479,40,o),
(479,127,cs),
(479,235,ls),
(479,282,o),
(456,323,o),
(422,350,c),
(456,377,o),
(479,418,o),
(479,466,cs),
(479,574,ls),
(479,660,o),
(403,724,o),
(319,724,cs),
(114,724,ls),
(89,724,o),
(51,722,o),
(51,688,cs),
(51,241,ls),
(51,239,o),
(51,237,o),
(51,236,cs),
(51,234,o),
(51,233,o),
(51,232,cs),
(51,12,ls),
(51,-11,o),
(76,-24,o),
(96,-24,cs)
);
},
{
closed = 1;
nodes = (
(141,234,l),
(142,240,o),
(142,246,o),
(143,252,cs),
(145,266,o),
(153,281,o),
(165,293,cs),
(184,312,o),
(201,314,o),
(227,314,cs),
(254,314,o),
(282,315,o),
(309,315,cs),
(356,315,o),
(389,282,o),
(389,234,cs),
(389,128,ls),
(389,88,o),
(360,48,o),
(318,48,cs),
(141,48,l)
);
},
{
closed = 1;
nodes = (
(141,652,l),
(318,652,ls),
(360,652,o),
(389,613,o),
(389,573,cs),
(389,466,ls),
(389,434,o),
(369,399,o),
(337,389,cs),
(330,387,o),
(323,387,o),
(315,387,cs),
(289,387,o),
(259,387,o),
(238,387,cs),
(202,387,o),
(174,385,o),
(141,370,c)
);
}
);
width = 529;
}
);
note = B.ss02;
},
{
glyphname = a;
lastChange = "2023-11-08 21:45:13 +0000";
layers = (
{
anchors = (
{
name = bottom;
pos = (283,0);
},
{
name = ogonek;
pos = (505,10);
},
{
name = top;
pos = (283,480);
}
);
background = {
shapes = (
{
closed = 1;
nodes = (
(402,290,l),
(402,426,o),
(350,491,o),
(241,491,cs),
(193,491,o),
(146,462,o),
(146,432,cs),
(146,411,o),
(157,393,o),
(187,393,cs),
(241,393,o),
(257,420,o),
(278,420,cs),
(308,420,o),
(310,405,o),
(310,340,c)
);
},
{
pos = (-22,10);
ref = o;
}
);
};
hints = (
{
horizontal = 1;
place = (323,63);
type = Stem;
},
{
horizontal = 1;
place = (192,64);
type = Stem;
},
{
horizontal = 1;
place = (-21,72);
type = Stem;
},
{
place = (382,90);
type = Stem;
},
{
place = (51,90);
type = Stem;
}
);
layerId = "2F065738-4B59-43EB-A5F2-FD5F277958EA";
shapes = (
{
closed = 1;
nodes = (
(421,-11,o),
(497,42,o),
(497,246,cs),
(497,448,o),
(422,512,o),
(273,512,cs),
(155,512,o),
(66,468,o),
(66,406,cs),
(66,375,o),
(89,354,o),
(123,354,cs),
(146,354,o),
(168,363,o),
(190,382,cs),
(207,397,o),
(230,408,o),
(264,408,cs),
(331,408,o),
(353,383,o),
(353,235,cs),
(353,127,o),
(339,104,o),
(276,104,cs),
(219,104,o),
(194,122,o),
(194,160,cs),
(194,200,o),
(222,231,o),
(298,231,cs),
(365,231,l),
(365,320,l),
(267,320,ls),
(112,320,o),
(50,251,o),
(50,156,cs),
(50,49,o),
(127,-11,o),
(278,-11,cs)
);
}
);
width = 547;
}
);
metricLeft = o;
metricRight = o;
note = a;
unicode = 97;
},
{
glyphname = b;
lastChange = "2023-11-08 21:16:16 +0000";
layers = (
{
anchors = (
{
name = bottom;
pos = (265,0);
},
{
name = center;
pos = (265,240);
},
{
name = top;
pos = (265,480);
}
);
hints = (
{
horizontal = 1;
place = (724,-20);
target = down;
type = TopGhost;
},
{
horizontal = 1;
place = (314,72);
type = Stem;
},
{
horizontal = 1;
place = (-24,72);
type = Stem;
},
{
place = (389,90);
type = Stem;
},
{
place = (51,90);
type = Stem;
}
);
layerId = "2F065738-4B59-43EB-A5F2-FD5F277958EA";
shapes = (
{
closed = 1;
nodes = (
(444,-12,o),
(498,99,o),
(498,250,cs),
(498,401,o),
(444,512,o),
(267,512,cs),
(228,512,o),
(196,507,o),
(168,498,c),
(177,520,o),
(181,545,o),
(181,573,cs),
(181,692,ls),
(181,740,o),
(161,770,o),
(109,770,cs),
(57,770,o),
(36,740,o),
(36,692,cs),
(36,250,ls),
(36,99,o),
(90,-12,o),
(267,-12,cs)
);
},
{
closed = 1;
nodes = (
(203,108,o),
(180,151,o),
(180,250,cs),
(180,349,o),
(203,392,o),
(267,392,cs),
(331,392,o),
(354,349,o),
(354,250,cs),
(354,151,o),
(331,108,o),
(267,108,cs)
);
}
);
width = 530;
}
);
note = b;
unicode = 98;
},
{
glyphname = c;
lastChange = "2023-11-08 15:44:00 +0000";
layers = (
{
anchors = (
{
name = bottom;
pos = (265,0);
},
{
name = top;
pos = (265,480);
}
);
background = {
shapes = (
{
closed = 1;
nodes = (
(194,291,o),
(192,372,o),
(282,372,cs),
(302,372,o),
(367,372,o),
(367,430,cs),
(367,491,o),
(310,490,o),
(296,491,cs),
(258,491,o),
(237,494,o),
(182,478,c),
(191,501,o),
(195,526,o),
(195,551,cs),
(195,681,ls),
(195,704,o),
(190,754,o),
(121,754,cs),
(63,754,o),
(50,702,o),
(50,679,cs),
(51,235,ls),
(52,9,o),
(205,-13,o),
(297,-13,cs),
(448,-13,o),
(473,84,o),
(460,121,cs),
(450,149,o),
(411,174,o),
(381,162,cs),
(329,141,o),
(355,108,o),
(287,108,cs),
(230,108,o),
(194,157,o),
(194,230,cs)
);
},
{
closed = 1;
nodes = (
(458,-12,o),
(512,95,o),
(512,240,cs),
(512,385,o),
(458,492,o),
(281,492,cs),
(104,492,o),
(50,385,o),
(50,240,cs),
(50,95,o),
(104,-12,o),
(281,-12,cs)
);
},
{
closed = 1;
nodes = (
(217,108,o),
(194,148,o),
(194,240,cs),
(194,332,o),
(217,372,o),
(281,372,cs),
(345,372,o),
(368,332,o),
(368,240,cs),
(368,148,o),
(345,108,o),
(281,108,cs)
);
}
);
};
hints = (
{
horizontal = 1;
place = (314,72);
type = Stem;
},
{
horizontal = 1;
place = (-23,72);
type = Stem;
},
{
place = (390,89);
type = Stem;
},
{
place = (51,90);
type = Stem;
}
);
layerId = "2F065738-4B59-43EB-A5F2-FD5F277958EA";
shapes = (
{
closed = 1;
nodes = (
(49,93,o),
(103,-12,o),
(273,-12,cs),
(368,-12,o),
(481,51,o),
(481,147,cs),
(481,161,o),
(470,169,o),
(439,169,cs),
(395,169,o),
(392,158,o),
(387,139,cs),
(379,111,o),
(357,108,o),
(279,108,cs),
(245,108,o),
(194,111,o),
(194,256,cs),
(194,311,o),
(202,372,o),
(285,372,cs),
(320,372,o),
(361,351,o),
(361,305,cs),
(361,305,o),
(407,270,o),
(421,270,cs),
(470,270,o),
(500,319,o),
(500,333,cs),
(500,337,o),
(499,340,o),
(498,347,cs),
(482,424,o),
(412,492,o),
(285,492,cs),
(104,492,o),
(49,391,o),
(49,244,cs)
);
}
);
width = 530;
}
);
note = c;
unicode = 99;
},
{
glyphname = d;
lastChange = "2023-11-08 15:44:00 +0000";
layers = (
{
anchors = (
{
name = bottom;
pos = (265,0);
},
{
name = center;
pos = (265,240);
},
{
name = top;
pos = (265,742);
},
{
name = topright;
pos = (510,742);
}
);
hints = (
{
horizontal = 1;
place = (724,-20);
target = down;
type = TopGhost;
},
{
horizontal = 1;
place = (314,72);
type = Stem;
},
{
horizontal = 1;
place = (-24,72);
type = Stem;
},
{
place = (390,90);
type = Stem;
},
{
place = (51,90);
type = Stem;
}
);
layerId = "2F065738-4B59-43EB-A5F2-FD5F277958EA";
shapes = (
{
closed = 1;
nodes = (
(444,-12,o),
(498,95,o),
(498,240,cs),
(498,676,ls),
(498,724,o),
(477,754,o),
(425,754,cs),
(373,754,o),
(353,724,o),
(353,676,cs),
(353,544,ls),
(353,485,o),
(369,422,o),
(369,422,cs),
(369,422,o),
(349,492,o),
(267,492,c),
(92,492,o),
(36,385,o),
(36,240,cs),
(36,95,o),
(90,-12,o),
(267,-12,cs)
);
},
{
closed = 1;
nodes = (
(354,148,o),
(331,108,o),
(267,108,cs),
(203,108,o),
(180,148,o),
(180,240,cs),
(180,332,o),
(203,372,o),
(267,372,cs),
(331,372,o),
(354,332,o),
(354,240,cs)
);
}
);
width = 530;
}
);
note = d;
unicode = 100;
},
{
glyphname = e;
lastChange = "2023-11-08 21:44:55 +0000";
layers = (
{
anchors = (
{
name = bottom;
pos = (274,0);
},
{
name = ogonek;
pos = (484,10);
},
{
name = top;
pos = (274,500);
}
);
hints = (
{
horizontal = 1;
place = (314,72);
type = Stem;
},
{
horizontal = 1;
place = (151,72);
type = Stem;
},
{
horizontal = 1;
place = (-24,72);
type = Stem;
},
{
place = (377,90);
type = Stem;
},
{
place = (50,90);
type = Stem;
},
{
horizontal = 1;
place = (177,-63);
type = Stem;
},
{
horizontal = 1;
place = (308,-64);
type = Stem;
},
{
horizontal = 1;
place = (521,-72);
type = Stem;
},
{
place = (145,-90);
type = Stem;
},
{
place = (476,-90);
type = Stem;
}
);
layerId = "2F065738-4B59-43EB-A5F2-FD5F277958EA";
shapes = (
{
closed = 1;
nodes = (
(402,-12,o),
(491,32,o),
(491,93,cs),
(491,125,o),
(468,146,o),
(434,146,cs),
(411,146,o),
(389,137,o),
(367,118,cs),
(349,102,o),
(323,92,o),
(280,92,cs),
(206,92,o),
(194,117,o),
(194,252,cs),
(194,381,o),
(205,406,o),
(270,406,cs),
(328,406,o),
(353,384,o),
(353,341,cs),
(353,304,o),
(329,276,o),
(263,276,cs),
(182,276,l),
(182,180,l),
(281,180,ls),
(427,180,o),
(497,245,o),
(497,345,cs),
(497,453,o),
(418,511,o),
(267,511,cs),
(105,511,o),
(50,445,o),
(50,248,cs),
(50,46,o),
(109,-12,o),
(266,-12,cs)
);
}
);
width = 547;
}
);
metricLeft = o;
metricRight = o;
note = e;
unicode = 101;
},
{
glyphname = f;
lastChange = "2023-11-08 15:44:00 +0000";
layers = (
{
annotations = (
{
pos = (372.218,623.419);
type = Text;
}
);
background = {
anchors = (
{
name = bottom;
pos = (551,0);
},
{
name = top;
pos = (551,742);
}
);
shapes = (
{
closed = 1;
nodes = (
(4,657,o)
);
},
{
closed = 1;
nodes = (
(165,584,o),
(188,633,o),
(245,633,cs),
(313,633,o),
(287,600,o),
(339,579,cs),
(369,567,o),
(408,592,o),
(418,620,cs),
(431,657,o),
(406,754,o),
(255,754,cs),
(163,754,o),
(23,732,o),
(22,506,cs),
(21,62,ls),
(21,39,o),
(34,-13,o),
(92,-13,cs),
(161,-13,o),
(166,37,o),
(166,60,cs),
(166,190,ls),
(166,215,o),
(162,240,o),
(153,263,c),
(208,247,o),
(229,250,o),
(267,250,cs),
(281,251,o),
(338,250,o),
(338,311,cs),
(338,369,o),
(273,369,o),
(253,369,cs),
(163,369,o),
(165,450,o),
(165,511,cs)
);
}
);
};
hints = (
{
horizontal = 1;
place = (652,73);
type = Stem;
},
{
horizontal = 1;
place = (315,73);
type = Stem;
},
{
horizontal = 1;
place = (-24,21);
target = up;
type = BottomGhost;
},
{
place = (51,90);
type = Stem;
}
);
layerId = "2F065738-4B59-43EB-A5F2-FD5F277958EA";
shapes = (
{
closed = 1;
nodes = (
(162,272,l),
(167,327,o),
(192,352,o),
(283,352,cs),
(343,352,o),
(373,365,o),
(373,420,cs),
(373,462,o),
(345,492,o),
(296,492,cs),
(228,492,o),
(189,474,o),
(162,427,c),
(162,487,ls),
(162,552,o),
(170,632,o),
(241,632,cs),
(318,632,o),
(307,576,o),
(351,576,cs),
(421,576,o),
(444,643,o),
(395,703,cs),
(353,754,o),
(279,753,o),
(231,753,cs),
(93,753,o),
(22,656,o),
(22,520,cs),
(22,66,ls),
(22,44,o),
(31,-13,o),
(89,-13,cs),
(170,-13,o),
(162,44,o),
(162,66,cs)
);
}
);
width = 360;
}
);
note = f;
unicode = 102;
},
{
glyphname = g;
lastChange = "2023-11-08 21:39:09 +0000";
layers = (
{
anchors = (
{
name = bottom;
pos = (265,-258);
},
{
name = top;
pos = (265,480);
}
);
hints = (
{
place = (389,90);
type = Stem;
},
{
place = (314,72);
type = Stem;
},
{
place = (51,90);
type = Stem;
},
{
place = (-24,72);
type = Stem;
},
{
place = (-362,72);
type = Stem;
}
);
layerId = "2F065738-4B59-43EB-A5F2-FD5F277958EA";
shapes = (
{
closed = 1;
nodes = (
(415,-262,o),
(490,-199,o),
(490,-67,cs),
(490,0,o),
(467,48,o),
(419,78,c),
(468,116,o),
(490,174,o),
(490,260,cs),
(490,429,o),
(414,512,o),
(258,512,cs),
(104,512,o),
(28,429,o),
(28,260,cs),
(28,98,o),
(104,18,o),
(258,18,cs),
(323,18,o),
(346,-4,o),
(346,-67,cs),
(346,-121,o),
(322,-142,o),
(258,-142,cs),
(207,-142,o),
(178,-121,o),
(178,-84,cs),
(178,-49,o),
(155,-31,o),
(111,-31,cs),
(58,-31,o),
(32,-48,o),
(32,-84,cs),
(32,-193,o),
(101,-262,o),
(258,-262,cs)
);
},
{
closed = 1;
nodes = (
(197,138,o),
(172,173,o),
(172,260,cs),
(172,354,o),
(197,392,o),
(258,392,cs),
(321,392,o),
(346,355,o),
(346,260,cs),
(346,172,o),
(321,138,o),
(258,138,cs)
);
},
{
closed = 1;
nodes = (
(384,404,o),
(423,432,o),
(476,432,cs),
(542,432,o),
(566,450,o),
(566,500,cs),
(566,544,o),
(536,572,o),
(489,572,cs),
(435,572,o),
(401,544,o),
(380,481,c),
(384,365,l)
);
}
);
width = 530;
}
);
note = g;
unicode = 103;
},
{
glyphname = h;
lastChange = "2023-11-08 18:29:26 +0000";
layers = (
{
anchors = (
{
name = bottom;
pos = (305,0);
}
);
background = {
shapes = (
{
pos = (6,0);
ref = n;
},
{
closed = 1;
nodes = (
(169,-13,o),
(182,3,o),
(182,46,cs),
(182,273,ls),
(182,371,o),
(218,417,o),
(305,417,cs),
(392,417,o),
(428,371,o),
(428,273,cs),
(428,46,ls),
(428,3,o),
(441,-13,o),
(474,-13,cs),
(507,-13,o),
(520,3,o),
(520,46,cs),
(520,263,ls),
(520,421,o),
(455,492,o),
(309,492,cs),
(250,492,o),
(192,465,o),
(169,427,c),
(179,470,o),
(183,525,o),
(183,603,cs),
(183,668,o),
(189,687,o),
(215,683,cs),
(236,680,o),
(252,653,o),
(306,656,c),
(336,658,o),
(347,674,o),
(347,695,cs),
(347,725,o),
(300,754,o),
(252,754,cs),
(143,754,o),
(91,689,o),
(91,553,cs),
(90,46,ls),
(90,3,o),
(103,-13,o),
(136,-13,cs)
);
}
);
};
hints = (
{
horizontal = 1;
place = (724,-20);
target = down;
type = TopGhost;
},
{
horizontal = 1;
place = (313,71);
type = Stem;
},
{
horizontal = 1;
place = (-20,21);
target = up;
type = BottomGhost;
},
{
horizontal = 1;
place = (-24,21);
target = up;
type = BottomGhost;
},
{
place = (387,90);
type = Stem;
},
{
place = (51,90);
type = Stem;
},
{
horizontal = 1;
place = (314,72);
type = Stem;
},
{
horizontal = 1;
place = (-22,21);
target = up;
type = BottomGhost;
},
{
horizontal = 1;
place = (-23,21);
target = up;
type = BottomGhost;
},
{
place = (344,90);
type = Stem;
},
{
place = (13,90);
type = Stem;
}
);
layerId = "2F065738-4B59-43EB-A5F2-FD5F277958EA";
shapes = (
{
closed = 1;
nodes = (
(194,-8,o),
(214,18,o),
(214,60,cs),
(214,293,ls),
(214,347,o),
(240,392,o),
(302,392,cs),
(364,392,o),
(390,347,o),
(390,293,cs),
(390,60,ls),
(390,18,o),
(410,-8,o),
(462,-8,cs),
(514,-8,o),
(534,18,o),
(534,60,cs),
(534,289,ls),
(534,446,o),
(438,512,o),
(316,512,cs),
(268,512,o),
(225,502,o),
(189,470,c),
(207,501,o),
(215,533,o),
(215,573,cs),
(215,676,ls),
(215,724,o),
(195,754,o),
(143,754,cs),
(91,754,o),
(70,724,o),
(70,676,cs),
(70,60,ls),
(70,18,o),
(90,-8,o),
(142,-8,cs)
);
}
);
width = 604;
}
);
note = h;
unicode = 104;
},
{
glyphname = i;
lastChange = "2023-11-08 15:44:00 +0000";
layers = (
{
anchors = (
{
name = bottom;
pos = (141,0);
}
);
hints = (
{
horizontal = 1;
place = (547,39);
type = Stem;
},
{
horizontal = 1;
place = (448,40);
type = Stem;
},
{
horizontal = 1;
place = (-21,21);
target = up;
type = BottomGhost;
},
{
place = (166,41);
type = Stem;
},
{
place = (84,90);
type = Stem;
},
{
place = (50,42);
type = Stem;
}
);
layerId = "2F065738-4B59-43EB-A5F2-FD5F277958EA";
shapes = (
{
closed = 1;
nodes = (
(191,547,o),
(228,583,o),
(228,630,cs),
(228,679,o),
(191,715,o),
(141,715,cs),
(91,715,o),
(54,679,o),
(54,630,cs),
(54,583,o),
(91,547,o),
(141,547,cs)
);
},
{
closed = 1;
nodes = (
(193,-12,o),
(213,14,o),
(213,56,cs),
(213,424,ls),
(213,466,o),
(193,492,o),
(141,492,cs),
(89,492,o),
(69,466,o),
(69,424,cs),
(69,56,ls),
(69,14,o),
(89,-12,o),
(141,-12,cs)
);
}
);
width = 282;
}
);
note = i;
unicode = 105;
},
{
glyphname = m;
lastChange = "2023-11-08 21:16:00 +0000";
layers = (
{
hints = (
{
horizontal = 1;
place = (313,72);
type = Stem;
},
{
horizontal = 1;
place = (-21,21);
target = up;
type = BottomGhost;
},
{
horizontal = 1;
place = (-22,21);
target = up;
type = BottomGhost;
},
{
place = (638,89);
type = Stem;
},
{
place = (343,92);
type = Stem;
},
{
place = (51,91);
type = Stem;
}
);
layerId = "2F065738-4B59-43EB-A5F2-FD5F277958EA";
shapes = (
{
closed = 1;
nodes = (
(184,-8,o),
(204,18,o),
(204,60,cs),
(204,293,ls),
(204,347,o),
(228,392,o),
(286,392,cs),
(344,392,o),
(368,347,o),
(368,293,cs),
(368,60,ls),
(368,18,o),
(388,-8,o),
(440,-8,cs),
(492,-8,o),
(512,18,o),
(512,60,cs),
(512,293,ls),
(512,347,o),
(536,392,o),
(594,392,cs),
(652,392,o),
(676,347,o),
(676,293,cs),
(676,60,ls),
(676,18,o),
(696,-8,o),
(748,-8,cs),
(800,-8,o),
(820,18,o),
(820,60,cs),
(820,289,ls),
(820,446,o),
(740,512,o),
(612,512,cs),
(541,512,o),
(473,498,o),
(440,430,c),
(407,498,o),
(339,512,o),
(268,512,cs),
(140,512,o),
(60,446,o),
(60,289,cs),
(60,60,ls),
(60,18,o),
(80,-8,o),
(132,-8,cs)
);
}
);
width = 880;
}
);
metricLeft = n;
metricRight = n;
note = m;
unicode = 109;
},
{
glyphname = n;
lastChange = "2023-11-08 21:29:31 +0000";
layers = (
{
anchors = (
{
name = bottom;
pos = (292,0);
},
{
name = top;
pos = (292,480);
}
);
background = {
shapes = (
{
ref = o;
}
);
};
hints = (
{
horizontal = 1;
place = (314,72);
type = Stem;
},
{
horizontal = 1;
place = (-22,21);
target = up;
type = BottomGhost;
},
{
horizontal = 1;
place = (-23,21);
target = up;
type = BottomGhost;
},
{
place = (382,90);
type = Stem;
},
{
place = (51,90);
type = Stem;
}
);
layerId = "2F065738-4B59-43EB-A5F2-FD5F277958EA";
shapes = (
{
closed = 1;
nodes = (
(184,-8,o),
(204,18,o),
(204,60,cs),
(204,293,ls),
(204,347,o),
(230,392,o),
(292,392,cs),
(354,392,o),
(380,347,o),
(380,293,cs),
(380,60,ls),
(380,18,o),
(400,-8,o),
(452,-8,cs),
(504,-8,o),
(524,18,o),
(524,60,cs),
(524,289,ls),
(524,446,o),
(435,512,o),
(292,512,cs),
(149,512,o),
(60,446,o),
(60,289,cs),
(60,60,ls),
(60,18,o),
(80,-8,o),
(132,-8,cs)
);
}
);
width = 584;
}
);
note = n;
unicode = 110;
},
{
glyphname = o;
lastChange = "2023-11-08 21:29:13 +0000";
layers = (
{
anchors = (
{
name = bottom;
pos = (281,0);
},
{
name = center;
pos = (281,240);
},
{
name = ogonek;
pos = (515,10);
},
{
name = top;
pos = (281,480);
},
{
name = topright;
pos = (554,480);
}
);
hints = (
{
horizontal = 1;
place = (314,72);
type = Stem;
},
{
horizontal = 1;
place = (-26,72);
type = Stem;
},
{
place = (377,90);
type = Stem;
},
{
place = (50,90);
type = Stem;
}
);
layerId = "2F065738-4B59-43EB-A5F2-FD5F277958EA";
shapes = (
{
closed = 1;
nodes = (
(458,-12,o),
(512,99,o),
(512,250,cs),
(512,401,o),
(458,512,o),
(281,512,cs),
(104,512,o),
(50,401,o),
(50,250,cs),
(50,99,o),
(104,-12,o),
(281,-12,cs)
);
},
{
closed = 1;
nodes = (
(217,108,o),
(194,151,o),
(194,250,cs),
(194,349,o),
(217,392,o),
(281,392,cs),
(345,392,o),
(368,349,o),
(368,250,cs),
(368,151,o),
(345,108,o),
(281,108,cs)
);
}
);
width = 562;
}
);
note = o;
unicode = 111;
},
{
glyphname = r;
lastChange = "2023-11-08 21:16:00 +0000";
layers = (
{
background = {
shapes = (
{
closed = 1;
nodes = (
(117,-12,o),
(139,-1,o),
(142,21,cs),
(143,29,o),
(142,268,o),
(142,337,c),
(142,396,o),
(158,412,o),
(219,412,cs),
(231,412,o),
(242,411,o),
(253,411,cs),
(276,411,o),
(306,419,o),
(306,447,cs),
(306,488,o),
(248,484,o),
(220,484,cs),
(188,484,o),
(155,465,o),
(132,429,cs),
(133,458,o),
(121,480,o),
(91,480,cs),
(60,480,o),
(50,462,o),
(50,429,cs),
(51,21,l),
(54,-1,o),
(77,-12,o),
(97,-12,cs)
);
}
);
};
hints = (
{
horizontal = 1;
place = (315,72);
type = Stem;
},
{
horizontal = 1;
place = (-24,21);
target = up;
type = BottomGhost;
},
{
place = (51,92);
type = Stem;
}
);
layerId = "2F065738-4B59-43EB-A5F2-FD5F277958EA";
shapes = (
{
closed = 1;
nodes = (
(184,-11,o),
(204,15,o),
(204,57,cs),
(204,265,ls),
(204,339,o),
(221,372,o),
(326,372,cs),
(386,372,o),
(416,385,o),
(416,440,cs),
(416,482,o),
(388,512,o),
(339,512,cs),
(270,512,o),
(227,490,o),
(200,441,c),
(200,486,o),
(184,512,o),
(132,512,cs),
(80,512,o),
(60,486,o),
(60,444,cs),
(60,57,ls),
(60,15,o),
(80,-11,o),
(132,-11,cs)
);
}
);
width = 416;
}
);
metricLeft = n;
note = r;
unicode = 114;
},
{
glyphname = s;
lastChange = "2023-11-08 15:44:00 +0000";
layers = (
{
anchors = (
{
name = bottom;
pos = (259,0);
},
{
name = top;
pos = (259,480);
}
);
background = {
annotations = (
{
pos = (8,-111);
type = Text;
}
);
shapes = (
{
closed = 1;
nodes = (
(458,-12,o),
(512,95,o),
(512,240,cs),
(512,385,o),
(458,492,o),
(281,492,cs),
(104,492,o),
(50,385,o),
(50,240,cs),
(50,95,o),
(104,-12,o),
(281,-12,cs)
);
},
{
closed = 1;
nodes = (
(217,108,o),
(194,148,o),
(194,240,cs),
(194,332,o),
(217,372,o),
(281,372,cs),
(345,372,o),
(368,332,o),
(368,240,cs),
(368,148,o),
(345,108,o),
(281,108,cs)
);
}
);
};
hints = (
{
horizontal = 1;
place = (314,72);
type = Stem;
},
{
horizontal = 1;
place = (151,72);
type = Stem;
},
{
horizontal = 1;
place = (-24,71);
type = Stem;
},
{
place = (378,90);
type = Stem;
},
{
place = (50,90);
type = Stem;
}
);
layerId = "2F065738-4B59-43EB-A5F2-FD5F277958EA";
shapes = (
{
closed = 1;
nodes = (
(82,291,o),
(106,207,o),
(260,207,cs),
(278,207,o),
(368,208,o),
(368,152,c),
(368,142,o),
(365,92,o),
(273,92,cs),
(186,92,o),
(159,142,o),
(156,164,cs),
(153,189,o),
(148,204,o),
(104,204,cs),
(73,204,o),
(60,192,o),
(60,160,cs),
(60,82,o),
(125,-10,o),
(270,-10,cs),
(413,-10,o),
(490,48,o),
(490,161,cs),
(490,225,o),
(439,270,o),
(383,280,c),
(267,303,o),
(201,289,o),
(201,342,cs),
(201,372,o),
(239,390,o),
(280,390,cs),
(345,390,o),
(368,360,o),
(374,339,c),
(383,306,o),
(409,304,o),
(434,304,cs),
(457,304,o),
(486,310,o),
(486,346,cs),
(486,429,o),
(398,492,o),
(280,492,cs),
(174,492,o),
(82,437,o),
(82,340,cs)
);
}
);
width = 518;
}
);
note = s;
unicode = 115;
},
{
glyphname = t;
lastChange = "2023-11-08 15:44:00 +0000";
layers = (
{
anchors = (
{
name = bottom;
pos = (230,0);
},
{
name = center;
pos = (230,240);
},
{
name = top;
pos = (230,480);
},
{
name = topright;
pos = (390,742);
}
);
hints = (
{
horizontal = 1;
place = (724,-20);
target = down;
type = TopGhost;
},
{
horizontal = 1;
place = (314,72);
type = Stem;
},
{
horizontal = 1;
place = (-25,73);
type = Stem;
},
{
place = (51,90);
type = Stem;
}
);
layerId = "2F065738-4B59-43EB-A5F2-FD5F277958EA";
shapes = (
{
closed = 1;
nodes = (
(204,291,o),
(202,372,o),
(292,372,cs),
(312,372,o),
(377,372,o),
(377,430,cs),
(377,491,o),
(320,490,o),
(306,491,cs),
(268,491,o),
(247,494,o),
(192,478,c),
(201,501,o),
(205,526,o),
(205,551,cs),
(205,681,ls),
(205,704,o),
(200,754,o),
(131,754,cs),
(73,754,o),
(60,702,o),
(60,679,cs),
(61,235,ls),
(62,9,o),
(202,-13,o),
(294,-13,cs),
(445,-13,o),
(470,84,o),
(457,121,cs),
(447,149,o),
(408,174,o),
(378,162,cs),
(326,141,o),
(352,108,o),
(284,108,cs),
(227,108,o),
(204,157,o),
(204,230,cs)
);
}
);
width = 490;
}
);
note = t;
unicode = 116;
},
{
glyphname = u;
lastChange = "2023-11-08 21:16:00 +0000";
layers = (
{
anchors = (
{
name = bottom;
pos = (289,0);
},
{
name = top;
pos = (289,480);
}
);
background = {
shapes = (
{
closed = 1;
nodes = (
(394,493,o),
(381,477,o),
(381,434,cs),
(381,207,ls),
(381,105,o),
(345,62,o),
(258,62,cs),
(171,62,o),
(135,105,o),
(135,207,cs),
(135,434,ls),
(135,477,o),
(122,493,o),
(89,493,cs),
(56,493,o),
(43,477,o),
(43,434,cs),
(43,217,ls),
(43,52,o),
(112,-12,o),
(258,-12,cs),
(404,-12,o),
(473,50,o),
(473,217,cs),
(473,434,ls),
(473,477,o),
(460,493,o),
(427,493,cs)
);
}
);
};
hints = (
{
horizontal = 1;
place = (-24,72);
type = Stem;
},
{
horizontal = 1;
place = (-2,21);
target = up;
type = BottomGhost;
},
{
place = (380,92);
type = Stem;
},
{
place = (51,90);
type = Stem;
},
{
horizontal = 1;
origin = (0,20);
place = (512,-72);
type = Stem;
},
{
horizontal = 1;
origin = (0,20);
target = down;
type = TopGhost;
},
{
horizontal = 1;
origin = (0,20);
target = down;
type = TopGhost;
},
{
origin = (0,20);
place = (132,-90);
type = Stem;
},
{
origin = (0,20);
place = (132,-90);
type = Stem;
}
);
layerId = "2F065738-4B59-43EB-A5F2-FD5F277958EA";
shapes = (
{
closed = 1;
nodes = (
(430,-12,o),
(518,54,o),
(518,211,cs),
(518,434,ls),
(518,482,o),
(498,512,o),
(446,512,cs),
(394,512,o),
(374,482,o),
(374,434,cs),
(374,207,ls),
(374,153,o),
(349,108,o),
(289,108,cs),
(229,108,o),
(204,153,o),
(204,207,cs),
(204,434,ls),
(204,482,o),
(184,512,o),
(132,512,cs),
(80,512,o),
(60,482,o),
(60,434,cs),
(60,211,ls),
(60,54,o),
(148,-12,o),
(289,-12,cs)
);
}
);
width = 578;
}
);
metricLeft = n;
metricRight = n;
note = u;
unicode = 117;
},
{
glyphname = period;
lastChange = "2023-11-08 21:08:52 +0000";
layers = (
{
layerId = "2F065738-4B59-43EB-A5F2-FD5F277958EA";
shapes = (
{
closed = 1;
nodes = (
(229,-12,o),
(272,29,o),
(272,83,cs),
(272,140,o),
(229,181,o),
(172,181,cs),
(115,181,o),
(72,140,o),
(72,83,cs),
(72,29,o),
(115,-12,o),
(172,-12,cs)
);
}
);
width = 344;
}
);
unicode = 46;
},
{
glyphname = comma;
lastChange = "2023-11-08 21:13:21 +0000";
layers = (
{
layerId = "2F065738-4B59-43EB-A5F2-FD5F277958EA";
shapes = (
{
closed = 1;
nodes = (
(119,-169,ls),
(144,-169,o),
(161,-158,o),
(172,-136,cs),
(317,140,ls),
(322,149,o),
(324,156,o),
(324,163,cs),
(324,182,o),
(310,193,o),
(284,193,cs),
(184,193,ls),
(161,193,o),
(131,180,o),
(124,154,cs),
(53,-108,ls),
(50,-121,o),
(48,-132,o),
(48,-142,cs),
(48,-160,o),
(68,-169,o),
(89,-169,cs)
);
}
);
width = 386;
}
);
unicode = 44;
},
{
glyphname = acutecomb;
lastChange = "2023-11-08 15:44:00 +0000";
layers = (
{
anchors = (
{
name = _top;
pos = (146,700);
},
{
name = top;
pos = (146,851);
}
);
layerId = "2F065738-4B59-43EB-A5F2-FD5F277958EA";
shapes = (
{
closed = 1;
nodes = (
(227,788,ls),
(240,794,o),
(248,801,o),
(248,813,cs),
(248,828,o),
(243,850,o),
(227,850,cs),
(213,850,o),
(206,848,o),
(194,842,cs),
(65,783,ls),
(52,777,o),
(44,771,o),
(44,758,cs),
(44,739,o),
(58,721,o),
(73,721,cs),
(77,721,o),
(86,724,o),
(90,726,cs)
);
}
);
width = 300;
}
);
unicode = 769;
},
{
glyphname = macroncomb;
lastChange = "2023-11-08 15:44:00 +0000";
layers = (
{
anchors = (
{
name = _top;
pos = (206,687);
},
{
name = top;
pos = (206,791);
}
);
hints = (
{
horizontal = 1;
place = (710,81);
type = Stem;
},
{
place = (50,312);
type = Stem;
}
);
layerId = "2F065738-4B59-43EB-A5F2-FD5F277958EA";
shapes = (
{
closed = 1;
nodes = (
(317,710,ls),
(340,710,o),
(362,726,o),
(362,750,cs),
(362,774,o),
(340,791,o),
(317,791,cs),
(95,791,ls),
(72,791,o),
(50,774,o),
(50,750,cs),
(50,726,o),
(72,710,o),
(95,710,cs)
);
}
);
width = 412;
}
);
unicode = 772;
},
{
glyphname = tilde;
lastChange = "2023-11-08 15:44:00 +0000";
layers = (
{
hints = (
{
horizontal = 1;
place = (600,121);
type = Stem;
},
{
horizontal = 1;
place = (551,72);
type = Stem;
},
{
place = (50,290);
type = Stem;
}
);
layerId = "2F065738-4B59-43EB-A5F2-FD5F277958EA";
shapes = (
{
closed = 1;
nodes = (
(295,551,o),
(340,583,o),
(340,636,cs),
(340,659,o),
(315,672,o),
(295,672,cs),
(244,672,o),
(254,633,o),
(245,623,c),
(245,623,l),
(241,623,o),
(240,634,o),
(240,636,cs),
(240,654,o),
(237,664,o),
(229,679,cs),
(213,709,o),
(175,721,o),
(145,721,cs),
(95,721,o),
(50,689,o),
(50,636,cs),
(50,613,o),
(75,600,o),
(95,600,cs),
(145,600,o),
(136,640,o),
(145,649,c),
(145,650,l),
(149,650,o),
(150,639,o),
(150,636,cs),
(150,619,o),
(153,609,o),
(161,594,cs),
(177,564,o),
(215,551,o),
(245,551,cs)
);
}
);
width = 390;
}
);
note = tilde;
unicode = 732;
},
{
glyphname = macron;
lastChange = "2023-11-08 15:44:00 +0000";
layers = (
{
hints = (
{
horizontal = 1;
place = (710,81);
type = Stem;
},
{
place = (50,312);
type = Stem;
}
);
layerId = "2F065738-4B59-43EB-A5F2-FD5F277958EA";
shapes = (
{
closed = 1;
nodes = (
(317,710,ls),
(340,710,o),
(362,726,o),
(362,750,cs),
(362,774,o),
(340,791,o),
(317,791,cs),
(95,791,ls),
(72,791,o),
(50,774,o),
(50,750,cs),
(50,726,o),
(72,710,o),
(95,710,cs)
);
}
);
width = 412;
}
);
note = macron;
unicode = 175;
},
